<svg xmlns="http://www.w3.org/2000/svg" viewBox="0 0 100.76 105.85"><defs><style>.cls-1{fill:#ec4850;}.cls-2{fill:#fff;}</style></defs><title>Asset 1</title><g id="Layer_2" data-name="Layer 2"><g id="Layer_1-2" data-name="Layer 1"><path class="cls-1" d="M14.1,0V72.54A46.29,46.29,0,0,1,0,105.85H85.88A14.88,14.88,0,0,0,100.76,91V0Z"/><path class="cls-2" d="M24.62,13.42h2l1.59,8.21.9,4.88h.09c.32-1.63.69-3.27,1.06-4.87l2.09-8.21h1.75l2.09,8.21c.35,1.59.71,3.24,1.08,4.88h.09c.3-1.63.58-3.27.85-4.87l1.59-8.21h1.86L38.51,28.51H36.19l-2.28-9.08c-.25-1.17-.51-2.25-.71-3.43h-.09c-.25,1.17-.51,2.25-.76,3.43L30.1,28.51H27.82Z"/><path class="cls-2" d="M44.24,12.13h1.89V16.6l-.07,2.3a5.34,5.34,0,0,1,3.73-1.84c2.34,0,3.4,1.52,3.4,4.37v7.08H51.3V21.68c0-2.09-.64-3-2.12-3-1.15,0-1.93.6-3.06,1.72v8.09H44.24Z"/><path class="cls-2" d="M63.31,21.42c0-1.43-.48-2.81-2.3-2.81a6,6,0,0,0-3.33,1.2l-.76-1.31a8.3,8.3,0,0,1,4.39-1.45c2.74,0,3.89,1.82,3.89,4.6v6.85H63.63l-.16-1.33h0a6.07,6.07,0,0,1-3.7,1.61,3,3,0,0,1-3.29-3.17C56.43,23.17,58.55,22,63.31,21.42Zm-3.06,5.84a4.58,4.58,0,0,0,3.06-1.49v-3.1c-3.75.46-5,1.38-5,2.81A1.71,1.71,0,0,0,60.25,27.27Z"/><path class="cls-2" d="M69.31,18.87H67.66V17.45l1.75-.12.23-3.13h1.59v3.13h3v1.54h-3v6.21c0,1.38.44,2.16,1.72,2.16a4.07,4.07,0,0,0,1.26-.3l.37,1.43a6.88,6.88,0,0,1-2.07.41c-2.39,0-3.2-1.52-3.2-3.73Z"/><path class="cls-2" d="M26.17,43.42h8.69V45H28.1v4.74h5.7V51.4H28.1v5.47h7v1.63H26.17Z"/><path class="cls-2" d="M36.68,47.33h2l2.12,6.35c.32,1.1.69,2.23,1,3.29h.09c.32-1.06.69-2.18,1-3.29L45,47.33h1.86l-4,11.18H40.7Z"/><path class="cls-2" d="M53.35,47.06c2.85,0,4.46,2,4.46,5.24a6.69,6.69,0,0,1-.07,1H50.2c.14,2.41,1.59,3.93,3.73,3.93a5.05,5.05,0,0,0,2.78-.87l.67,1.24a6.65,6.65,0,0,1-3.68,1.15c-3,0-5.36-2.18-5.36-5.84S50.8,47.06,53.35,47.06Zm2.81,5c0-2.28-1-3.54-2.76-3.54-1.56,0-3,1.29-3.22,3.54Z"/><path class="cls-2" d="M60.8,47.33h1.56l.16,2h.07a3.82,3.82,0,0,1,3.17-2.3,2.77,2.77,0,0,1,1.2.23l-.37,1.66a3.15,3.15,0,0,0-1.08-.18c-.94,0-2.07.69-2.83,2.58v7.17H60.8Z"/><path class="cls-2" d="M69.54,61.75c1.26,0,2.07-1,2.53-2.39l.25-.83-4.48-11.2h2l2.28,6.19c.34,1,.74,2.12,1.08,3.15h.09c.32-1,.64-2.16.94-3.15l2-6.19H78l-4.21,12.1c-.78,2.21-1.93,3.89-4.19,3.89a3.72,3.72,0,0,1-1.31-.23l.37-1.5A3.26,3.26,0,0,0,69.54,61.75Z"/><path class="cls-2" d="M80.35,56.94h3.36V46.14H81V44.92a8.72,8.72,0,0,0,3.1-1.08H85.6V56.94h3v1.56H80.35Z"/><path class="cls-2" d="M26.23,85.22A5.87,5.87,0,0,0,30.4,87.1c2,0,3.15-1,3.15-2.46s-1.1-2-2.53-2.67L28.86,81c-1.4-.6-3.06-1.68-3.06-3.89s2-4,4.76-4A6.17,6.17,0,0,1,35,75l-1,1.24a4.85,4.85,0,0,0-3.43-1.43c-1.7,0-2.83.85-2.83,2.21s1.33,2,2.51,2.51l2.16.92c1.75.76,3.1,1.79,3.1,4,0,2.39-2,4.3-5.15,4.3a7.26,7.26,0,0,1-5.27-2.23Z"/><path class="cls-2" d="M44.77,81.43c0-1.43-.48-2.81-2.3-2.81a6,6,0,0,0-3.33,1.2l-.76-1.31a8.3,8.3,0,0,1,4.39-1.45c2.74,0,3.89,1.82,3.89,4.6v6.85H45.09l-.16-1.33h0a6.07,6.07,0,0,1-3.7,1.61,3,3,0,0,1-3.29-3.17C37.9,83.17,40,82,44.77,81.43Zm-3.06,5.84a4.58,4.58,0,0,0,3.06-1.49v-3.1c-3.75.46-5,1.38-5,2.81A1.71,1.71,0,0,0,41.71,87.26Z"/><path class="cls-2" d="M50.54,91.75c1.26,0,2.07-1,2.53-2.39l.25-.83-4.48-11.2h2l2.28,6.19c.34,1,.74,2.12,1.08,3.15h.09c.32-1,.64-2.16.94-3.15l2-6.19H59l-4.21,12.1c-.78,2.21-1.93,3.89-4.19,3.89a3.72,3.72,0,0,1-1.31-.23l.37-1.5A3.26,3.26,0,0,0,50.54,91.75Z"/><path class="cls-2" d="M61.13,86a5,5,0,0,0,3.29,1.33c1.47,0,2.21-.78,2.21-1.75,0-1.15-1.33-1.66-2.55-2.12-1.59-.58-3.33-1.33-3.33-3.22s1.43-3.17,3.84-3.17A5.57,5.57,0,0,1,68,78.32l-.9,1.2a4.15,4.15,0,0,0-2.55-1c-1.4,0-2,.76-2,1.61,0,1,1.22,1.45,2.48,1.93,1.61.6,3.4,1.26,3.4,3.38,0,1.82-1.45,3.33-4.09,3.33a6.73,6.73,0,0,1-4.16-1.54Z"/><rect class="cls-2" x="25.17" y="31.92" width="49.56" height="1"/><rect class="cls-2" x="25.17" y="62.35" width="40.51" height="1"/><rect class="cls-2" x="75.06" y="62.35" width="13.71" height="1"/><rect class="cls-2" x="25.17" y="91.87" width="21.7" height="1"/><rect class="cls-2" x="56.25" y="91.87" width="11.61" height="1"/></g></g></svg>